<svg xmlns="http://www.w3.org/2000/svg" xmlns:xlink="http://www.w3.org/1999/xlink" width="2000" zoomAndPan="magnify" viewBox="0 0 1500 1499.999933" height="2000" preserveAspectRatio="xMidYMid meet" version="1.0"><defs><clipPath id="f1a2bc0367"><path d="M 419 213.144531 L 1308 213.144531 L 1308 807 L 419 807 Z M 419 213.144531 " clip-rule="nonzero"/></clipPath><clipPath id="a4959eb22c"><path d="M 254 426 L 1146 426 L 1146 1236.144531 L 254 1236.144531 Z M 254 426 " clip-rule="nonzero"/></clipPath></defs><rect x="-150" width="1800" fill="#ffffff" y="-149.999993" height="1799.99992" fill-opacity="1"/><rect x="-150" width="1800" fill="#ffffff" y="-149.999993" height="1799.99992" fill-opacity="1"/><g clip-path="url(#f1a2bc0367)"><path fill="#060724" d="M 1307.59375 433.667969 L 1307.59375 607.683594 C 1307.59375 695.527344 1256.253906 771.375 1181.933594 806.828125 L 1181.933594 647.023438 C 1181.933594 505.402344 1066.675781 390.144531 925.015625 390.144531 L 474.957031 390.144531 C 455.976562 390.144531 437.46875 392.214844 419.652344 396.144531 C 437.433594 292.226562 527.96875 213.144531 636.976562 213.144531 L 1087.035156 213.144531 C 1208.839844 213.144531 1307.59375 311.859375 1307.59375 433.667969 Z M 1307.59375 433.667969 " fill-opacity="1" fill-rule="nonzero"/></g><g clip-path="url(#a4959eb22c)"><path fill="#fca311" d="M 925.015625 426.503906 L 474.917969 426.503906 C 353.152344 426.503906 254.398438 525.257812 254.398438 647.023438 L 254.398438 821.042969 C 254.398438 942.847656 353.152344 1041.566406 474.917969 1041.566406 L 494.410156 1041.566406 L 494.410156 1236.273438 L 522.332031 1208.347656 C 629.121094 1101.558594 773.976562 1041.566406 924.980469 1041.566406 C 1046.785156 1041.566406 1145.503906 942.8125 1145.503906 821.042969 L 1145.503906 647.023438 C 1145.539062 525.257812 1046.820312 426.503906 925.015625 426.503906 Z M 925.015625 426.503906 " fill-opacity="1" fill-rule="nonzero"/></g></svg>