<svg xmlns="http://www.w3.org/2000/svg" xmlns:xlink="http://www.w3.org/1999/xlink" width="2000" zoomAndPan="magnify" viewBox="0 0 1500 1499.999933" height="2000" preserveAspectRatio="xMidYMid meet" version="1.0"><defs><clipPath id="39cf04464a"><path d="M 128 401 L 1181 401 L 1181 1358.25 L 128 1358.25 Z M 128 401 " clip-rule="nonzero"/></clipPath></defs><rect x="-150" width="1800" fill="#ffffff" y="-149.999993" height="1799.99992" fill-opacity="1"/><rect x="-150" width="1800" fill="#c15f3c" y="-149.999993" height="1799.99992" fill-opacity="1"/><path fill="#ffffff" d="M 1371.910156 410.4375 L 1371.910156 615.949219 C 1371.910156 719.695312 1311.277344 809.269531 1223.503906 851.136719 L 1223.503906 662.414062 C 1223.503906 495.160156 1087.382812 359.035156 920.085938 359.035156 L 388.5625 359.035156 C 366.148438 359.035156 344.292969 361.484375 323.25 366.121094 C 344.25 243.394531 451.171875 150 579.910156 150 L 1111.429688 150 C 1255.28125 150 1371.910156 266.585938 1371.910156 410.4375 Z M 1371.910156 410.4375 " fill-opacity="1" fill-rule="nonzero"/><g clip-path="url(#39cf04464a)"><path fill="#ffffff" d="M 920.085938 401.976562 L 388.519531 401.976562 C 244.710938 401.976562 128.085938 518.605469 128.085938 662.414062 L 128.085938 867.929688 C 128.085938 1011.78125 244.710938 1128.363281 388.519531 1128.363281 L 411.539062 1128.363281 L 411.539062 1358.3125 L 444.515625 1325.332031 C 570.632812 1199.214844 741.710938 1128.363281 920.042969 1128.363281 C 1063.894531 1128.363281 1180.480469 1011.738281 1180.480469 867.929688 L 1180.480469 662.414062 C 1180.523438 518.605469 1063.9375 401.976562 920.085938 401.976562 Z M 920.085938 401.976562 " fill-opacity="1" fill-rule="nonzero"/></g></svg>